<svg xmlns="http://www.w3.org/2000/svg"  viewBox="0 0 48 48" width="50px" height="50px" baseProfile="basic"><path fill="#fff" d="M34,42H14c-4.418,0-8-3.582-8-8V14c0-4.418,3.582-8,8-8h20c4.418,0,8,3.582,8,8v20	C42,38.418,38.418,42,34,42z"/><radialGradient id="zp8OvVo3fxOvRvFDry_roa" cx="25.769" cy="6.381" r="20.387" gradientTransform="matrix(0 1 -1.4803 0 35.215 -19.387)" gradientUnits="userSpaceOnUse"><stop offset="0" stop-color="#fed525"/><stop offset=".987" stop-color="#fed525" stop-opacity=".013"/><stop offset="1" stop-color="#fed525" stop-opacity="0"/></radialGradient><path fill="url(#zp8OvVo3fxOvRvFDry_roa)" d="M34,42H14c-4.418,0-8-3.582-8-8V14c0-4.418,3.582-8,8-8h20c4.418,0,8,3.582,8,8v20	C42,38.418,38.418,42,34,42z"/><radialGradient id="zp8OvVo3fxOvRvFDry_rob" cx="135.469" cy="117.024" r="17.503" gradientTransform="matrix(1 0 0 1.1697 -96.493 -109.417)" gradientUnits="userSpaceOnUse"><stop offset="0" stop-color="#1e9ce0"/><stop offset=".988" stop-color="#1e9ce0" stop-opacity=".053"/><stop offset="1" stop-color="#1e9ce0" stop-opacity=".042"/></radialGradient><path fill="url(#zp8OvVo3fxOvRvFDry_rob)" d="M6,34V14c0-4.418,3.582-8,8-8h20c4.418,0,8,3.582,8,8v20c0,4.418-3.582,8-8,8H14	C9.582,42,6,38.418,6,34z"/><radialGradient id="zp8OvVo3fxOvRvFDry_roc" cx="245.149" cy="4.096" r="20.387" gradientTransform="matrix(0 -1 1.2722 0 13.64 289.053)" gradientUnits="userSpaceOnUse"><stop offset=".167" stop-color="#f1850e"/><stop offset=".898" stop-color="#f1850e" stop-opacity=".122"/><stop offset="1" stop-color="#f1850e" stop-opacity="0"/></radialGradient><path fill="url(#zp8OvVo3fxOvRvFDry_roc)" d="M14,6h20c4.418,0,8,3.582,8,8v20c0,4.418-3.582,8-8,8H14c-4.418,0-8-3.582-8-8V14	C6,9.582,9.582,6,14,6z"/><radialGradient id="zp8OvVo3fxOvRvFDry_rod" cx="129.591" cy="-101.406" r="20.387" gradientTransform="matrix(.9995 -.0315 .0422 1.3384 -118.65 166.215)" gradientUnits="userSpaceOnUse"><stop offset="0" stop-color="#1e9ce0"/><stop offset="0" stop-color="#70b933" stop-opacity=".958"/><stop offset="1" stop-color="#70b933" stop-opacity="0"/></radialGradient><path fill="url(#zp8OvVo3fxOvRvFDry_rod)" d="M42,14v20c0,4.418-3.582,8-8,8H14c-4.418,0-8-3.582-8-8V14c0-4.418,3.582-8,8-8h20	C38.418,6,42,9.582,42,14z"/><path fill="#fff" d="M14,39c-2.757,0-5-2.243-5-5V14c0-2.757,2.243-5,5-5h20c2.757,0,5,2.243,5,5v20c0,2.757-2.243,5-5,5	H14z"/><path fill="#616161" d="M24,17.5v-2h-2V12h-2v3.5h-3V12h-2v3.5h-2v2h2v3h-2v2h2V26h2v-3.5h3V26h2v-3.5h2v-2h-2v-3H24z M20,20.5h-3v-3h3V20.5z"/></svg>